<?xml version="1.0" encoding="utf-8"?>
<!-- Generator: Adobe Illustrator 19.2.1, SVG Export Plug-In . SVG Version: 6.00 Build 0)  -->
<svg version="1.1" id="All_glyphs" xmlns="http://www.w3.org/2000/svg" xmlns:xlink="http://www.w3.org/1999/xlink" x="0px" y="0px"
	 viewBox="0 0 92 74" style="enable-background:new 0 0 92 74;" xml:space="preserve">
<style type="text/css">
	.st0{fill:#FFFFFF;}
</style>
<path class="st0" d="M89.5,0.2C87.8,0.8,2.9,30.7,1.2,31.3c-1.4,0.5-1.7,1.7,0,2.4c2,0.8,19,7.6,19,7.6h0l11.3,4.5
	c0,0,54.2-39.8,54.9-40.3c0.7-0.5,1.6,0.5,1.1,1.1C86.8,7.1,48,49.1,48,49.1c0,0,0,0,0,0l-2.3,2.5l3,1.6v0c0,0,23.3,12.5,24.9,13.4
	c1.5,0.8,3.3,0.1,3.8-1.7c0.5-2.1,14.2-61.3,14.5-62.6C92.3,0.6,91.2-0.4,89.5,0.2z M31.3,72.8c0,1.2,0.7,1.6,1.7,0.7
	c1.3-1.1,14.2-12.8,14.2-12.8l-15.9-8.2V72.8z"/>
</svg>
