<svg id="diapositive_logo" data-name="diapositive_logo 1" xmlns="http://www.w3.org/2000/svg" viewBox="0 0 136.31 145.73"><defs><style>.cls-1{fill:#fff;}</style></defs><title>diapositive_logo</title><path class="cls-1" d="M128.65,141.35c-.47-.44-3.16-2.88-3.66-10.94-.47-10.57-.79-22.05-1-24.79-1-11.58-5.5-21-16-25.52a88.24,88.24,0,0,0-29.28-6.77,74.72,74.72,0,0,0,23.5-7.16C114.93,60,116.53,52.33,119,37.85c1.38-9.4,2.29-11,4.74-14a8.93,8.93,0,0,1,5.19-2.9v-.69H92.31v.68a13.08,13.08,0,0,1,5.3,1.82c1.46,1,4.54,2.58,5,11.17,0,5.76.58,15.27-2.07,20.37C95.6,63.76,85.25,69.77,73.15,71.92l-.08-58.55c.17-8.73,8.85-11.72,9.33-11.92A11.89,11.89,0,0,1,85.33.69V0H43.6V.69a11.85,11.85,0,0,1,2.93.77c.47.2,9.15,3.19,9.32,11.92l-.07,58.56c-12.11-2.15-22.46-8.16-27.4-17.63C25.73,49.2,26.31,39.69,26.31,34c.46-8.6,3.54-10.12,5-11.18A13.31,13.31,0,0,1,36.63,21v-.68H0V21a8.89,8.89,0,0,1,5.19,2.89c2.44,3,3.36,4.61,4.73,14C12.38,52.34,14,60,26.76,66.17a75.83,75.83,0,0,0,29,7.73l-.06,58.27c-.4,6.89-4.48,10.1-7.87,11.5A28,28,0,0,1,43.29,145v.69H85.65V145a28.26,28.26,0,0,1-4.56-1.32c-3.38-1.41-7.45-4.61-7.87-11.5l-.06-56.75c13.32.74,26.27,3.79,32.15,15,2.65,5,3.11,13.5,3.18,17.76.09,5.89,0,21.94,0,24.28-.5,8.53-3.72,10-7.08,11.47A16.23,16.23,0,0,1,97.07,145v.69h39.24V145C131.55,143.49,130,142.63,128.65,141.35Z"/></svg>